<svg width="300" height="301" viewBox="0 0 300 301" fill="none" xmlns="http://www.w3.org/2000/svg">
<path d="M247.229 300.564C233.718 300.644 220.725 295.376 211.085 285.909L210.874 285.698C210.592 285.557 210.451 285.275 210.169 285.204L74.1899 149.789L96.3835 127.947L232.081 257.938L232.363 258.22L232.997 258.854C236.802 262.588 241.874 264.772 247.229 264.772C258.29 264.772 268.718 255.754 268.718 244.551V56.0827C268.718 44.9507 258.431 35.9324 247.229 35.9324C242.156 35.9324 237.013 38.0461 233.279 41.5689L232.856 41.9916L168.741 100.047L146.618 78.2058L210.028 15.6412C210.169 15.5002 210.31 15.2889 210.592 15.148C220.359 5.50995 233.507 0.0734048 247.229 0C275.411 0 299.577 22.4754 300 50.2349V250.47C299.507 278.229 275.2 300.564 247.158 300.564H247.229Z" fill="#3559C7"/>
<path d="M51.4326 7.2285e-05C64.9601 7.2285e-05 77.924 5.14334 87.5764 14.6549L87.7877 14.8662C88.0696 15.0071 88.2104 15.289 88.4922 15.3595L225.669 149.507L203.546 171.348L66.5805 42.6257L66.2988 42.3439C66.0169 42.2029 65.876 41.9916 65.5942 41.7098C62.7634 38.932 59.1784 37.0481 55.2851 36.2923C51.3919 35.5365 47.3624 35.9422 43.6979 37.4591C40.0335 38.9759 36.8961 41.5368 34.676 44.8232C32.4559 48.1095 31.2512 51.9761 31.2119 55.9418V244.411C31.1898 248.378 32.3396 252.264 34.5171 255.581C36.6945 258.898 39.8027 261.498 43.452 263.056C47.1012 264.613 51.129 265.058 55.0304 264.336C58.9318 263.614 62.5331 261.756 65.3828 258.995L65.8055 258.572L129.92 200.517L152.043 222.358L88.6332 284.923C88.4923 285.064 88.3513 285.275 88.0695 285.416C78.3027 295.054 65.154 300.49 51.4326 300.564C23.2504 300.564 0.352278 278.088 0 250.329V50.094C0.331275 36.6807 5.89821 23.9296 15.51 14.568C25.1218 5.20637 38.0153 -0.0224231 51.4326 7.2285e-05Z" fill="#3559C7"/>
</svg>
